# xmcd CD database file generated by Grip 3.0.6
# 
# Track frame offsets:
#       150
#       10863
#       17620
#       27200
#       41665
#       47808
#       72443
#       87388
#       97968
#       105978
#       115858
#       127310
# 
# Disc length: 1785 seconds
# 
# Revision: 1
# Processed by: cddbd v1.4PL0 Copyright (c) Steve Scherf et al.
# Submitted via: Grip 3.0.6
# 
DISCID=9706f70c
DTITLE=Connors, Loren Mazzacane - Hell's Kitchen Park
DYEAR=1993
DGENRE=Blues
TTITLE0=Mother and Son
TTITLE1=New Morning
TTITLE2=Father's Dream
TTITLE3=10th Avenue
TTITLE4=An Air
TTITLE5=The McCaffrey Playground
TTITLE6=Out Alone
TTITLE7=Hell's Kitchen Park
TTITLE8=Child
TTITLE9=Death Avenue
TTITLE10=Sorrow in the House
TTITLE11=Brigid's Song
EXTD=
EXTT0=
EXTT1=
EXTT2=
EXTT3=
EXTT4=
EXTT5=
EXTT6=
EXTT7=
EXTT8=
EXTT9=
EXTT10=
EXTT11=
PLAYORDER=
